# xmcd
#
# Track frame offsets: 
#        150
#        19484
#        37841
#        56974
#        89661
#        91986
#        115983
#        134974
#        161436
#        190942
#
# Disc length: 2824 seconds
#
# Revision: 0
# Processed by: cddbd v1.5.2PL0 Copyright (c) Steve Scherf et al.
# Submitted via: ExactAudioCopy v1.2
#
DISCID=8f0b060a
DTITLE=Seth Walker - Live At Mauch Chunk Opera House
DYEAR=2018
DGENRE=Blues
TTITLE0=Tomorrow
TTITLE1=Fire In The Belly
TTITLE2=Grab Ahold
TTITLE3=Call My Name
TTITLE4=Band Intros
TTITLE5=High Time
TTITLE6=Blue Eyes Crying In The Rain
TTITLE7=In The Meantime
TTITLE8=2' Left To The Ceiling
TTITLE9=Way Past Midnight
EXTD=
EXTT0=
EXTT1=
EXTT2=
EXTT3=
EXTT4=
EXTT5=
EXTT6=
EXTT7=
EXTT8=
EXTT9=
PLAYORDER=
